<?xml version="1.0"?>
<svg xmlns="http://www.w3.org/2000/svg" xmlns:xlink="http://www.w3.org/1999/xlink" version="1.1" id="Capa_1" x="0px" y="0px" viewBox="0 0 512 512" style="enable-background:new 0 0 512 512;" xml:space="preserve" width="512px" height="512px" class=""><g><g>
	<path d="M15,512h331c8.291,0,15-6.709,15-15c0-9.749,0-147.565,0-141.145l-25.195,25.199l-65.229,44.004l-18.53,18.53   c-17.598,17.598-46.051,17.582-63.633,0c-8.496-8.496-13.184-19.805-13.184-31.816c0-1.959,0.32-3.858,0.566-5.771H136v30   c0,8.291-6.709,15-15,15s-15-6.709-15-15v-30H76c-8.291,0-15-6.709-15-15s6.709-15,15-15h30v-30c0-8.291,6.709-15,15-15   s15,6.709,15,15v30h56.367l14.575-14.575l42.129-62.9L361,186.149c0-3.082,0-114.231,0-111.149c0-8.291-6.709-15-15-15h-75v15   c0,24.814-20.186,45-45,45h-90c-24.814,0-45-20.186-45-45V60H15C6.709,60,0,66.709,0,75v422C0,505.291,6.709,512,15,512z M76,151   h210c8.291,0,15,6.709,15,15s-6.709,15-15,15H76c-8.291,0-15-6.709-15-15S67.709,151,76,151z M76,211h179.15   c8.291,0,15,6.709,15,15s-6.709,15-15,15H76c-8.291,0-15-6.709-15-15S67.709,211,76,211z M76,271h149.15c8.291,0,15,6.709,15,15   s-6.709,15-15,15H76c-8.291,0-15-6.709-15-15S67.709,271,76,271z" data-original="#000000" class="active-path" data-old_color="#ffffff" fill="#ffffff"/>
	<path d="M226,90c8.284,0,15-6.716,15-15V45c0-8.286-6.716-15-15-15h-15c0-16.569-13.431-30-30-30s-30,13.431-30,30h-15   c-8.284,0-15,6.714-15,15v30c0,8.284,6.716,15,15,15H226z" data-original="#000000" class="active-path" data-old_color="#ffffff" fill="#ffffff"/>
	<path d="M464.18,167.82c-11.717-11.717-30.71-11.717-42.426,0l-63.64,63.638l42.426,42.427l63.64-63.64   C475.897,198.531,475.897,179.535,464.18,167.82z" data-original="#000000" class="active-path" data-old_color="#ffffff" fill="#ffffff"/>
	<path d="M274.3,315.273c-0.69,0.69-1.311,1.447-1.855,2.26l-42.213,63.023l-20.61,20.609c-5.858,5.858-5.858,15.357,0,21.215   s15.355,5.858,21.213,0l20.61-20.61l63.023-42.213c0.813-0.544,1.569-1.165,2.258-1.855l62.602-62.602l-42.426-42.426   L274.3,315.273z" data-original="#000000" class="active-path" data-old_color="#ffffff" fill="#ffffff"/>
	<path d="M486.393,123.787l-13.113,13.718c4.296,2.525,8.43,5.418,12.112,9.1c3.684,3.684,6.577,7.817,9.102,12.112L507.608,145   c5.858-5.858,5.856-15.355,0-21.213C501.75,117.93,492.252,117.93,486.393,123.787z" data-original="#000000" class="active-path" data-old_color="#ffffff" fill="#ffffff"/>
</g></g> </svg>
